IKResults
version=1
nRows=5
nColumns=44
inDegrees=yes

Units are S.I. units (second, meters, Newtons, ...)
Angles are in degrees.

endheader
time	ground_spine_rot_x	ground_spine_rot_y	ground_spine_rot_z	ground_spine_tx	ground_spine_ty	ground_spine_tz	clav_prot	clav_elev	scapula_abduction	scapula_elevation	scapula_upward_rot	scapula_winging	plane_elv	shoulder_elv	axial_rot	elbow_flexion	pro_sup	clav_prot_l	clav_elev_l	pitch2	roll2	yaw2	aux7jnt_r3	aux7jnt_r1	aux7jnt_r2	aux6jnt_r3	aux6jnt_r1	aux6jnt_r2	aux5jnt_r3	aux5jnt_r1	aux5jnt_r2	aux4jnt_r3	aux4jnt_r1	aux4jnt_r2	aux3jnt_r3	aux3jnt_r1	aux3jnt_r2	pitch1	roll1	yaw1	aux1jnt_r3	aux1jnt_r1	aux1jnt_r2
     73.15000000	      0.80299424	     -4.61885691	     -0.61289835	     -0.83568394	      1.09700942	      0.92516511	    -18.76781117	     -1.95837570	     14.09495374	    -16.07806361	     11.99813294	     14.18611322	    -68.33614254	     38.43820454	     52.31059908	      0.00000000	     34.32000000	     30.42326055	     -1.16071730	      0.64953997	     -0.06589855	      0.04774088	      6.95937926	     -0.51727168	      0.51424587	      8.18748494	     -0.59278673	      0.59904138	      8.18748494	     -0.81555255	      0.59904138	      6.14061371	     -0.81555255	      0.59904138	      4.09374247	     -0.74003966	      0.25712293	      0.01602700	      0.02490068	      0.01016479	      0.51056300	      0.71335206	      0.06464647
     73.16000000	      0.78742055	     -4.58631234	     -0.57944249	     -0.83544436	      1.09712137	      0.92526432	    -18.89709631	     -2.06112910	     13.93311614	    -16.18782182	     11.99868313	     14.32388278	    -68.45401879	     38.44325868	     52.04221954	      0.00000000	     34.32000000	     30.42326055	     -1.16071730	      0.65825149	     -0.06911048	      0.04728902	      7.05271727	     -0.54248378	      0.50937869	      8.29729410	     -0.62167947	      0.59337164	      8.29729410	     -0.85530301	      0.59337164	      6.22297058	     -0.85530301	      0.59337164	      4.14864705	     -0.77610959	      0.25468935	      0.01201538	      0.02951180	      0.01001270	      0.38276707	      0.84545084	      0.06367922
     73.17000000	      0.79908730	     -4.62009686	     -0.50215424	     -0.83495230	      1.09711305	      0.92519000	    -18.79158629	     -1.93056810	     14.05122858	    -16.05565816	     11.99884417	     14.20034636	    -67.95328948	     38.39502002	     51.36679226	      0.00000000	     34.32000000	     30.42326055	     -1.16071730	      0.65773542	     -0.06909265	      0.04748534	      7.04718797	     -0.54234379	      0.51149329	      8.29078906	     -0.62151904	      0.59583492	      8.29078906	     -0.85508229	      0.59583492	      6.21809179	     -0.85508229	      0.59583492	      4.14539453	     -0.77590931	      0.25574664	      0.01810360	      0.02944843	      0.01104463	      0.57671606	      0.84363540	      0.07024211
     73.18000000	      0.77188089	     -4.64821570	     -0.44953056	     -0.83460556	      1.09720448	      0.92544826	    -18.63830245	     -1.96044508	     14.29006834	    -16.06455703	     11.99818582	     14.07250462	    -68.44719367	     38.41831538	     54.32471065	      0.00000000	     34.32000000	     30.42326055	     -1.16071730	      0.66341267	     -0.06752575	      0.05617726	      7.10801578	     -0.53004435	      0.60511923	      8.36235101	     -0.60742404	      0.70489911	      8.36235101	     -0.83569047	      0.70489911	      6.27176326	     -0.83569047	      0.70489911	      4.18117551	     -0.75831299	      0.30255961	      0.01448260	      0.02513918	      0.00291425	      0.46136412	      0.72018450	      0.01853414
     73.19000000	      0.77965749	     -4.62725653	     -0.41021342	     -0.83438181	      1.09727193	      0.92540385	    -18.56250207	     -1.96598678	     14.40574739	    -16.06071874	     11.99861915	     14.00680313	    -68.48097777	     38.48169264	     53.38634231	      0.00000000	     34.32000000	     30.42326055	     -1.16071730	      0.66728082	     -0.06848295	      0.05688268	      7.14946046	     -0.53755794	      0.61271777	      8.41110934	     -0.61603451	      0.71375060	      8.41110934	     -0.84753671	      0.71375060	      6.30833201	     -0.84753671	      0.71375060	      4.20555467	     -0.76906238	      0.30635888	      0.01414659	      0.02625608	      0.00179185	      0.45065987	      0.75218141	      0.01139586
